<svg viewBox="0 0 669.05 707.45" class="svg active"><path d="M533.13 688.59H286.58c-75.63 0-135.89-61.64-135.89-135.9v-40.61c0-75.65 61.61-135.91 135.89-135.91h246.55c75.64 0 135.92 61.64 135.92 135.91v40.61c0 74.26-61.65 135.9-135.92 135.9zm0 0" class="icon1"></path><path d="M467.89 287.16H145.7a19.62 19.62 0 0 1 0-39.24h322.19a19.62 19.62 0 1 1 0 39.24zm0 126.07H145.7a19.63 19.63 0 0 1 0-39.25h322.19a19.63 19.63 0 1 1 0 39.25zm0 112.1H145.7a19.63 19.63 0 0 1 0-39.26h322.19c11.23 0 19.64 8.35 19.64 19.62a19.19 19.19 0 0 1-19.64 19.64zm0 0l14 182.12H131.7A131.54 131.54 0 0 1 0 575.77V183.5A131.54 131.54 0 0 1 131.7 51.82a19.64 19.64 0 0 1 0 39.27c-50.45 0-92.45 42-92.45 92.44v392.26c0 50.42 42 92.5 92.45 92.5h350.23c50.42 0 92.45-42.08 92.45-92.5V183.53c0-50.4-42-92.44-92.45-92.44a19.64 19.64 0 0 1 0-39.27A131.58 131.58 0 0 1 613.61 183.5v392.27c1.39 72.83-58.86 131.68-131.68 131.68zm-68.63-388.07H215.73c-19.6 0-36.39-16.8-36.39-36.41V36.43C179.34 16.78 196.16 0 215.73 0h183.53c19.61 0 36.42 16.85 36.42 36.43v64.42c0 19.61-16.81 36.41-36.42 36.41zM218.55 98h177.91V39.22H218.55zm0 0" class="icon2"></path></svg>