<?xml version="1.0" encoding="UTF-8" standalone="no"?>
<!-- Created with Inkscape (http://www.inkscape.org/) -->

<svg
   xmlns:dc="http://purl.org/dc/elements/1.1/"
   xmlns:cc="http://creativecommons.org/ns#"
   xmlns:rdf="http://www.w3.org/1999/02/22-rdf-syntax-ns#"
   xmlns:svg="http://www.w3.org/2000/svg"
   xmlns="http://www.w3.org/2000/svg"
   xmlns:sodipodi="http://sodipodi.sourceforge.net/DTD/sodipodi-0.dtd"
   xmlns:inkscape="http://www.inkscape.org/namespaces/inkscape"
   version="1.1"
   id="svg2"
   width="170.66667"
   height="241.33333"
   viewBox="0 0 170.66667 241.33333"
   sodipodi:docname="mic.svg"
   inkscape:version="0.92.2 (5c3e80d, 2017-08-06)">
  <metadata
     id="metadata8">
    <rdf:RDF>
      <cc:Work
         rdf:about="">
        <dc:format>image/svg+xml</dc:format>
        <dc:type
           rdf:resource="http://purl.org/dc/dcmitype/StillImage" />
        <dc:title />
      </cc:Work>
    </rdf:RDF>
  </metadata>
  <defs
     id="defs6" />
  <sodipodi:namedview
     pagecolor="#ffffff"
     bordercolor="#666666"
     borderopacity="1"
     objecttolerance="10"
     gridtolerance="10"
     guidetolerance="10"
     inkscape:pageopacity="0"
     inkscape:pageshadow="2"
     inkscape:window-width="1920"
     inkscape:window-height="981"
     id="namedview4"
     showgrid="false"
     inkscape:zoom="1.9558011"
     inkscape:cx="39.721488"
     inkscape:cy="116.92576"
     inkscape:window-x="0"
     inkscape:window-y="28"
     inkscape:window-maximized="1"
     inkscape:current-layer="svg2" />
  <g
     id="g181"
     style="fill:#ffffff"
     transform="matrix(0.96226137,0,0,1,2.6635217,0)">
    <path
       sodipodi:nodetypes="ccccccccccc"
       inkscape:connector-curvature="0"
       id="path12"
       d="M 84.875,5.625 C 61.89848,5.6505329 43.0313,21.989166 42.101562,42.666016 h -0.162109 v 102.134764 0 c 0.436877,21.02703 19.584936,39.87012 42.935547,39.88086 23.67185,-5e-5 42.86158,-19.28349 42.86133,-40.60352 -5.5e-4,-0.92082 -0.0377,-1.84133 -0.11133,-2.75976 V 46.242188 c 0.0566,-0.670887 0.0937,-1.342992 0.11133,-2.015626 C 127.73538,22.907292 108.546,5.6250482 84.875,5.625 Z"
       style="fill:#ffffff;fill-opacity:1;stroke-width:1.05371249" />
    <path
       id="rect32"
       d="m 78.611328,199.40625 v 23.26367 H 34.513672 c -1.628744,0 -2.941406,1.31266 -2.941406,2.94141 v 7.54101 c 0,1.62875 1.312662,2.93946 2.941406,2.93946 H 136.13281 c 1.62875,0 2.94141,-1.31071 2.94141,-2.93946 v -7.54101 c 0,-1.62875 -1.31266,-2.94141 -2.94141,-2.94141 H 92.162109 v -23.26367 z"
       style="fill:#ffffff;fill-opacity:1"
       inkscape:connector-curvature="0" />
    <path
       sodipodi:nodetypes="csccscc"
       inkscape:connector-curvature="0"
       id="path39"
       d="m 17.582031,146.97072 c 4.345435,34.10147 33.007188,62.01561 67.742188,62.01561 34.735001,0 63.396751,-27.91414 67.742191,-62.01561 h -13.33594 c -4.33585,26.98929 -27.00131,48.75129 -54.339845,48.75129 -27.338542,0 -50.002042,-21.762 -54.337891,-48.75129 z"
       style="fill:#ffffff;fill-opacity:1;stroke-width:1.07602048" />
    <g
       transform="matrix(1,0,0,1.0262766,0,-2.327997)"
       id="g159"
       style="fill:#ffffff">
      <path
         sodipodi:nodetypes="ssccsss"
         style="fill:#ffffff;fill-opacity:1;stroke-width:1.03520942"
         d="m 21.007644,88.59572 c -1.8973,0 -3.425613,1.61228 -3.425613,3.61524 v 53.26514 l 13.470703,1.49462 V 92.21096 c 0,-2.00296 -1.526366,-3.61524 -3.423666,-3.61524 z"
         id="rect61"
         inkscape:connector-curvature="0" />
      <path
         sodipodi:nodetypes="ssccsss"
         inkscape:connector-curvature="0"
         style="fill:#ffffff;fill-opacity:1;stroke-width:1.03001845"
         d="m 143.12181,88.59572 c -1.87832,0 -3.39134,1.61228 -3.39134,3.61524 v 54.75976 l 13.33594,-1.49462 V 92.21096 c 0,-2.00296 -1.51109,-3.61524 -3.38941,-3.61524 z"
         id="rect61-3" />
    </g>
  </g>
</svg>
